<svg width="65" height="65" viewBox="0 0 65 65" fill="none" xmlns="http://www.w3.org/2000/svg">
<path d="M50.3334 36.8L23.6667 51.4667L37 58.6667L50.3334 51.4667V36.8Z" fill="#C067D1"/>
<path d="M55.6667 57.3333H7.66668L2.33334 62.6667H61L55.6667 57.3333Z" fill="#C067D1"/>
<path d="M15.7206 53.104L11.9494 49.3328L8.1782 53.104L11.9494 56.8752L15.7206 53.104Z" fill="#C067D1"/>
<path d="M29 40L37 36L45 40V48L37 52L29 48V40Z" stroke="#703EBB" stroke-width="3" stroke-miterlimit="10" stroke-linejoin="round"/>
<path d="M10.3333 29.8667V25.3333" stroke="#703EBB" stroke-width="3" stroke-miterlimit="10" stroke-linecap="round" stroke-linejoin="round"/>
<path d="M50.3334 51.4667L37 58.6667L23.6667 51.4667V36.8L37 29.3333L50.3334 36.8V51.4667Z" stroke="#703EBB" stroke-width="3" stroke-miterlimit="10" stroke-linejoin="round"/>
<path d="M15.7206 53.104L11.9494 49.3328L8.1782 53.104L11.9494 56.8752L15.7206 53.104Z" stroke="#703EBB" stroke-width="3" stroke-miterlimit="10" stroke-linecap="round" stroke-linejoin="round"/>
<path d="M46.3333 28L42.3333 22.6667H31.6667L27.6667 28L2.33334 30.6667V62.6667H61V30.6667L46.3333 28Z" stroke="#703EBB" stroke-width="3" stroke-miterlimit="10" stroke-linecap="round" stroke-linejoin="round"/>
<path d="M49 9.33333L42.3333 4H31.6667L25 9.33333" stroke="#703EBB" stroke-width="3" stroke-miterlimit="10" stroke-linecap="round" stroke-linejoin="round"/>
<path d="M45 13.3333L39.9333 9.33333H34.0667L29 13.3333" stroke="#703EBB" stroke-width="3" stroke-miterlimit="10" stroke-linecap="round" stroke-linejoin="round"/>
<path d="M41 17.3333L37.8 14.6667H36.4667L33 17.3333" stroke="#703EBB" stroke-width="3" stroke-miterlimit="10" stroke-linecap="round" stroke-linejoin="round"/>
</svg>
